<?xml version="1.0" encoding="UTF-8" standalone="no"?>
<!-- Created with Inkscape (http://www.inkscape.org/) -->

<svg
   xmlns:dc="http://purl.org/dc/elements/1.1/"
   xmlns:cc="http://creativecommons.org/ns#"
   xmlns:rdf="http://www.w3.org/1999/02/22-rdf-syntax-ns#"
   xmlns:svg="http://www.w3.org/2000/svg"
   xmlns="http://www.w3.org/2000/svg"
   xmlns:xlink="http://www.w3.org/1999/xlink"
   xmlns:sodipodi="http://sodipodi.sourceforge.net/DTD/sodipodi-0.dtd"
   xmlns:inkscape="http://www.inkscape.org/namespaces/inkscape"
   width="744.09448819"
   height="1052.3622047"
   id="svg3080"
   version="1.1"
   inkscape:version="0.48.2 r9819"
   sodipodi:docname="Blue_Glass_Arrow.svg">
  <defs
     id="defs3082">
    <filter
       color-interpolation-filters="sRGB"
       id="Gaussian_Blur">
      <feGaussianBlur
         in="SourceGraphic"
         stdDeviation="2"
         id="feGaussianBlur6" />
    </filter>
    <linearGradient
       inkscape:collect="always"
       xlink:href="#SVGID_1_"
       id="linearGradient3068"
       gradientUnits="userSpaceOnUse"
       gradientTransform="matrix(1,0,0,-1,-156,-197)"
       x1="215.76559"
       y1="-278.12701"
       x2="222.8434"
       y2="-212.7417" />
    <linearGradient
       id="SVGID_1_"
       gradientUnits="userSpaceOnUse"
       x1="215.76559"
       y1="-278.12701"
       x2="222.8434"
       y2="-212.7417"
       gradientTransform="matrix(1,0,0,-1,-156,-197)">
      <stop
         offset="0"
         style="stop-color:#20ABFF"
         id="stop11" />
      <stop
         offset="0.5838"
         style="stop-color:#1572DE"
         id="stop13" />
      <stop
         offset="0.8528"
         style="stop-color:#0938BC"
         id="stop15" />
    </linearGradient>
    <linearGradient
       inkscape:collect="always"
       xlink:href="#SVGID_2_"
       id="linearGradient3070"
       gradientUnits="userSpaceOnUse"
       gradientTransform="matrix(1,0,0,-1,-156,-197)"
       x1="186.625"
       y1="-258.70209"
       x2="186.625"
       y2="-248.506" />
    <linearGradient
       id="SVGID_2_"
       gradientUnits="userSpaceOnUse"
       x1="186.625"
       y1="-258.70209"
       x2="186.625"
       y2="-248.506"
       gradientTransform="matrix(1,0,0,-1,-156,-197)">
      <stop
         offset="0"
         style="stop-color:#20D4FF"
         id="stop20" />
      <stop
         offset="1"
         style="stop-color:#20ADFF"
         id="stop22" />
    </linearGradient>
    <linearGradient
       inkscape:collect="always"
       xlink:href="#SVGID_3_"
       id="linearGradient3072"
       gradientUnits="userSpaceOnUse"
       gradientTransform="matrix(1,0,0,-1,-156,-197)"
       x1="237.36909"
       y1="-274.5654"
       x2="237.36909"
       y2="-223.01669" />
    <linearGradient
       id="SVGID_3_"
       gradientUnits="userSpaceOnUse"
       x1="237.36909"
       y1="-274.5654"
       x2="237.36909"
       y2="-223.01669"
       gradientTransform="matrix(1,0,0,-1,-156,-197)">
      <stop
         offset="0"
         style="stop-color:#3AEFFF"
         id="stop29" />
      <stop
         offset="0.5482"
         style="stop-color:#20ABFF"
         id="stop31" />
      <stop
         offset="0.619"
         style="stop-color:#1EA1F9"
         id="stop33" />
      <stop
         offset="0.7399"
         style="stop-color:#1986E9"
         id="stop35" />
      <stop
         offset="0.8955"
         style="stop-color:#105AD0"
         id="stop37" />
      <stop
         offset="1"
         style="stop-color:#0938BC"
         id="stop39" />
    </linearGradient>
    <linearGradient
       inkscape:collect="always"
       xlink:href="#SVGID_4_"
       id="linearGradient3074"
       gradientUnits="userSpaceOnUse"
       gradientTransform="matrix(1,0,0,-1,-156,-197)"
       x1="199.0293"
       y1="-265.77731"
       x2="278.44339"
       y2="-265.77731" />
    <linearGradient
       id="SVGID_4_"
       gradientUnits="userSpaceOnUse"
       x1="199.0293"
       y1="-265.77731"
       x2="278.44339"
       y2="-265.77731"
       gradientTransform="matrix(1,0,0,-1,-156,-197)">
      <stop
         offset="0"
         style="stop-color:#20ABFF"
         id="stop44" />
      <stop
         offset="1"
         style="stop-color:#2057D9"
         id="stop46" />
    </linearGradient>
    <linearGradient
       inkscape:collect="always"
       xlink:href="#SVGID_5_"
       id="linearGradient3076"
       gradientUnits="userSpaceOnUse"
       gradientTransform="matrix(1,0,0,-1,-156,-197)"
       x1="183.9668"
       y1="-253.47659"
       x2="183.9668"
       y2="-250.61259" />
    <linearGradient
       id="SVGID_5_"
       gradientUnits="userSpaceOnUse"
       x1="183.9668"
       y1="-253.47659"
       x2="183.9668"
       y2="-250.61259"
       gradientTransform="matrix(1,0,0,-1,-156,-197)">
      <stop
         offset="0"
         style="stop-color:#A3E0FF"
         id="stop53" />
      <stop
         offset="1"
         style="stop-color:#FFFFFF"
         id="stop55" />
    </linearGradient>
    <linearGradient
       inkscape:collect="always"
       xlink:href="#SVGID_6_"
       id="linearGradient3078"
       gradientUnits="userSpaceOnUse"
       gradientTransform="matrix(0.9448,-0.3275,-0.3275,-0.9448,-130.0903,-201.9744)"
       x1="116.0586"
       y1="-316.23441"
       x2="116.0586"
       y2="-313.37051" />
    <linearGradient
       id="SVGID_6_"
       gradientUnits="userSpaceOnUse"
       x1="116.0586"
       y1="-316.23441"
       x2="116.0586"
       y2="-313.37051"
       gradientTransform="matrix(0.9448,-0.3275,-0.3275,-0.9448,-130.0903,-201.9744)">
      <stop
         offset="0"
         style="stop-color:#A3E0FF"
         id="stop60" />
      <stop
         offset="1"
         style="stop-color:#FFFFFF"
         id="stop62" />
    </linearGradient>
    <linearGradient
       y2="-313.37051"
       x2="116.0586"
       y1="-316.23441"
       x1="116.0586"
       gradientTransform="matrix(0.9448,-0.3275,-0.3275,-0.9448,-130.0903,-201.9744)"
       gradientUnits="userSpaceOnUse"
       id="linearGradient3139"
       xlink:href="#SVGID_6_"
       inkscape:collect="always" />
    <linearGradient
       inkscape:collect="always"
       xlink:href="#SVGID_6_"
       id="linearGradient3233"
       gradientUnits="userSpaceOnUse"
       gradientTransform="matrix(-3.0030592,-7.7302208,-8.6634818,2.679559,-1958.4511,2107.9922)"
       x1="116.0586"
       y1="-316.23441"
       x2="116.0586"
       y2="-313.37051" />
    <linearGradient
       inkscape:collect="always"
       xlink:href="#SVGID_5_"
       id="linearGradient3236"
       gradientUnits="userSpaceOnUse"
       gradientTransform="matrix(0,-8.1818594,-9.1696463,0,-1912.8376,2319.9818)"
       x1="183.9668"
       y1="-253.47659"
       x2="183.9668"
       y2="-250.61259" />
    <linearGradient
       inkscape:collect="always"
       xlink:href="#SVGID_4_"
       id="linearGradient3240"
       gradientUnits="userSpaceOnUse"
       gradientTransform="matrix(0,-8.1818594,-9.1696463,0,-1912.8376,2319.9818)"
       x1="199.0293"
       y1="-265.77731"
       x2="278.44339"
       y2="-265.77731" />
    <linearGradient
       inkscape:collect="always"
       xlink:href="#SVGID_3_"
       id="linearGradient3243"
       gradientUnits="userSpaceOnUse"
       gradientTransform="matrix(0,-8.1818594,-9.1696463,0,-1912.8376,2319.9818)"
       x1="237.36909"
       y1="-274.5654"
       x2="237.36909"
       y2="-223.01669" />
    <linearGradient
       inkscape:collect="always"
       xlink:href="#SVGID_2_"
       id="linearGradient3247"
       gradientUnits="userSpaceOnUse"
       gradientTransform="matrix(0,-8.1818594,-9.1696463,0,-1912.8376,2319.9818)"
       x1="186.625"
       y1="-258.70209"
       x2="186.625"
       y2="-248.506" />
    <linearGradient
       inkscape:collect="always"
       xlink:href="#SVGID_1_"
       id="linearGradient3250"
       gradientUnits="userSpaceOnUse"
       gradientTransform="matrix(0,-8.1818594,-9.1696463,0,-1912.8376,2319.9818)"
       x1="215.76559"
       y1="-278.12701"
       x2="222.8434"
       y2="-212.7417" />
    <linearGradient
       inkscape:collect="always"
       xlink:href="#SVGID_1_"
       id="linearGradient3040"
       gradientUnits="userSpaceOnUse"
       gradientTransform="matrix(0,-8.1818594,-9.1696463,0,-1912.8376,2319.9818)"
       x1="215.76559"
       y1="-278.12701"
       x2="222.8434"
       y2="-212.7417" />
    <linearGradient
       inkscape:collect="always"
       xlink:href="#SVGID_2_"
       id="linearGradient3042"
       gradientUnits="userSpaceOnUse"
       gradientTransform="matrix(0,-8.1818594,-9.1696463,0,-1912.8376,2319.9818)"
       x1="186.625"
       y1="-258.70209"
       x2="186.625"
       y2="-248.506" />
    <linearGradient
       inkscape:collect="always"
       xlink:href="#SVGID_3_"
       id="linearGradient3044"
       gradientUnits="userSpaceOnUse"
       gradientTransform="matrix(0,-8.1818594,-9.1696463,0,-1912.8376,2319.9818)"
       x1="237.36909"
       y1="-274.5654"
       x2="237.36909"
       y2="-223.01669" />
    <linearGradient
       inkscape:collect="always"
       xlink:href="#SVGID_4_"
       id="linearGradient3046"
       gradientUnits="userSpaceOnUse"
       gradientTransform="matrix(0,-8.1818594,-9.1696463,0,-1912.8376,2319.9818)"
       x1="199.0293"
       y1="-265.77731"
       x2="278.44339"
       y2="-265.77731" />
    <linearGradient
       inkscape:collect="always"
       xlink:href="#SVGID_5_"
       id="linearGradient3048"
       gradientUnits="userSpaceOnUse"
       gradientTransform="matrix(0,-8.1818594,-9.1696463,0,-1912.8376,2319.9818)"
       x1="183.9668"
       y1="-253.47659"
       x2="183.9668"
       y2="-250.61259" />
    <linearGradient
       inkscape:collect="always"
       xlink:href="#SVGID_6_"
       id="linearGradient3050"
       gradientUnits="userSpaceOnUse"
       gradientTransform="matrix(-3.0030592,-7.7302208,-8.6634818,2.679559,-1958.4511,2107.9922)"
       x1="116.0586"
       y1="-316.23441"
       x2="116.0586"
       y2="-313.37051" />
  </defs>
  <sodipodi:namedview
     id="base"
     pagecolor="#ffffff"
     bordercolor="#666666"
     borderopacity="1.0"
     inkscape:pageopacity="0.0"
     inkscape:pageshadow="2"
     inkscape:zoom="0.35"
     inkscape:cx="375"
     inkscape:cy="405.71429"
     inkscape:document-units="px"
     inkscape:current-layer="layer1"
     showgrid="false"
     showguides="true"
     inkscape:guide-bbox="true"
     inkscape:window-width="1024"
     inkscape:window-height="712"
     inkscape:window-x="-4"
     inkscape:window-y="-4"
     inkscape:window-maximized="1" />
  <metadata
     id="metadata3085">
    <rdf:RDF>
      <cc:Work
         rdf:about="">
        <dc:format>image/svg+xml</dc:format>
        <dc:type
           rdf:resource="http://purl.org/dc/dcmitype/StillImage" />
        <dc:title />
      </cc:Work>
    </rdf:RDF>
  </metadata>
  <g
     inkscape:label="Layer 1"
     inkscape:groupmode="layer"
     id="layer1">
    <g
       id="g3029"
       transform="matrix(-1.0157951,0,0,1,752.15,0)">
      <path
         transform="matrix(0,-8.1818594,9.1696463,0,-106.41726,1043.6117)"
         id="path8"
         style="opacity:0.5;fill:#000000;stroke:#000000;stroke-width:0;filter:url(#Gaussian_Blur)"
         d="m 7.333,54.584 c 0,0 67.667,-15.334 114.544,3.387 0.996,1.155 0.379,2.506 -1.603,3.453 -1.978,0.945 -68.924,25.151 -68.924,25.151 0,0 -3.244,1.307 -4.803,1.264 -2.569,-0.069 -4.087,-0.8 -4.129,-6.866 -0.027,-3.962 1.748,-10.556 1.748,-10.556 l -35.2,-0.062 c 0,0 -2.428,0.155 -4.381,-1.938 C 2.71,66.406 7.333,54.584 7.333,54.584 z"
         enable-background="new    "
         inkscape:connector-curvature="0" />
      <path
         id="path17"
         d="m 456.66321,1016.8652 c 0,0 -60.26292,0.6218 -80.37195,0.6873 -28.85688,0.098 -80.34444,-8.9592 -127.47642,-27.57289 -47.13198,-18.60555 -60.06119,-23.52284 -60.06119,-40.06656 0,-16.54372 2.88844,-343.93265 2.88844,-343.93265 L 49.475897,578.39936 c 0,0 -29.361208,-4.13184 -34.771299,-19.99647 -5.4100913,-15.85644 10.811013,-44.11658 10.811013,-44.11658 0,0 179.835099,-327.82256 239.520329,-435.364924 4.86908,-8.787317 19.11871,-33.954717 29.36121,-34.118354 17.00969,-0.286365 104.30473,-1.399098 104.30473,-1.399098 0,0 22.9883,-3.100925 31.67195,13.115521 8.67449,16.175536 230.62578,563.926475 230.62578,563.926475 0,0 12.00307,26.55014 11.60877,39.30565 -0.64187,21.02738 -7.33572,33.43926 -62.95879,33.7829 -36.33014,0.22909 -93.47538,-8.95913 -93.47538,-8.95913 l -3.86959,282.66687 c 0,0 1.4213,19.86556 -17.77077,35.84478 -18.46767,15.3328 -37.87064,13.7782 -37.87064,13.7782 z"
         style="fill:url(#linearGradient3040)"
         inkscape:connector-curvature="0" />
      <path
         id="path24"
         d="m 496.45948,638.91239 0.77942,331.61076 -11.60878,16.5519 c 0,0 -28.57261,4.8273 -60.25374,4.13184 -31.68113,-0.69546 -31.68113,-0.68728 -31.68113,-0.68728 0,0 -29.35204,0.68728 -30.13146,-28.9556 -0.77942,-29.64287 -2.31992,-366.76003 -2.31992,-366.76003 l 135.21561,44.10841 z"
         style="fill:url(#linearGradient3042)"
         inkscape:connector-curvature="0" />
      <path
         id="path26"
         d="m 429.04424,1017.1352 c 0,0 48.69999,6.2019 67.80953,-14.9973 9.7565,-10.83283 15.61591,-24.12017 15.85432,-34.2984 1.5405,-70.32308 3.47529,-283.26415 3.47529,-283.26415 0,0 65.67301,10.93914 89.61496,9.56459 20.82426,-1.20273 34.87216,-19.81646 34.87216,-19.81646 0,0 -52.34951,-8.82005 -75.33781,-15.77463 -21.62203,-6.54549 -70.48707,-23.42466 -80.83043,-15.59462 -8.89456,6.7173 2.48497,321.78435 2.48497,321.78435 0,0 1.83393,23.95648 -12.65411,35.85292 -13.47021,11.0537 -45.28888,16.5437 -45.28888,16.5437 z"
         inkscape:connector-curvature="0"
         style="fill:#20bfff" />
      <path
         id="path41"
         d="M 615.44481,671.39437 137.95381,561.08654 130.2238,522.47635 397.55567,86.784152 c 0,0 13.91952,-16.543719 23.18087,4.140021 9.27051,20.667377 227.1413,557.045537 227.1413,557.045537 0,0 6.88641,16.90372 0,24.82376 -5.39175,6.18548 -32.43303,-1.3991 -32.43303,-1.3991 z"
         style="fill:url(#linearGradient3044)"
         inkscape:connector-curvature="0" />
      <path
         id="path48"
         d="m 649.06073,641.22785 c 0,0 -224.5463,-540.58363 -230.06643,-553.772785 -5.53846,-13.262794 -16.51453,-42.013848 -34.61541,-42.521123 -31.85535,-0.908187 37.53136,-10.350053 45.65567,8.738225 6.64799,15.627352 232.56057,569.801053 232.56057,569.801053 0,0 10.04993,18.26191 9.83903,38.77383 -0.26592,29.29924 -32.82734,29.29924 -32.82734,29.29924 0,0 15.23996,-21.37102 15.23996,-29.64288 0,-8.27186 -5.78605,-20.67556 -5.78605,-20.67556 z"
         style="fill:url(#linearGradient3046)"
         inkscape:connector-curvature="0" />
      <path
         id="path50"
         d="m 327.43539,997.99783 c 0,0 -68.18549,-20.85556 -93.87884,-29.99469 -28.08663,-9.99005 -26.84873,-18.09828 -26.84873,-18.09828 l 0.77025,-361.94091 c 0,0 -73.08208,-11.65097 -109.714816,-19.30101 C 61.451455,561.07836 33.924177,555.52288 32.475373,548.67466 29.999568,536.99097 206.02927,211.03387 215.9875,208.79204 c 12.5991,-2.83092 84.5258,42.28385 137.52636,129.95247 47.51711,78.59494 47.14115,79.62586 70.31285,135.48341 23.17169,55.84119 33.22163,97.20049 33.99188,127.53883 0.77025,30.33015 4.35558,39.72292 -2.32909,43.86295 -8.84871,5.49002 -38.63172,-16.97736 -54.84366,-16.97736 -15.4967,0 -32.55224,3.9682 -52.34034,28.61196 -22.9883,28.60378 -22.85076,108.43418 -22.01632,145.28528 1.03617,46.78387 1.14621,195.44825 1.14621,195.44825 z"
         enable-background="new    "
         inkscape:connector-curvature="0"
         style="opacity:0.6;fill:#ffffff" />
      <path
         id="path57"
         d="m 397.55567,633.47145 c 9.38055,0 17.00052,6.79095 17.00052,15.16917 l 0,332.29804 c 0,8.37004 -7.59246,15.16916 -17.00052,15.16916 l 0,0 c -9.38055,0 -17.00052,-6.79094 -17.00052,-15.16916 l 0,-332.29804 c 0,-8.37822 7.61997,-15.16917 17.00052,-15.16917 l 0,0 z"
         enable-background="new    "
         style="opacity:0.7;fill:url(#linearGradient3048)"
         inkscape:connector-curvature="0" />
      <path
         id="path64"
         d="m 301.97128,64.799496 c 8.87621,-2.740923 20.44831,6.349123 25.89508,20.348285 L 543.39889,639.96785 c 5.4376,13.9828 2.6592,27.54832 -6.22619,30.29742 l 0,0 c -8.86704,2.73274 -20.44831,-6.38185 -25.88591,-20.35646 L 295.74509,95.072376 c -5.4376,-13.982798 -2.65003,-27.523775 6.22619,-30.27288 l 0,0 z"
         enable-background="new    "
         style="opacity:0.7;fill:url(#linearGradient3050)"
         inkscape:connector-curvature="0" />
    </g>
  </g>
</svg>
