<?xml version="1.0" encoding="utf-8"?>
<!-- Generator: Adobe Illustrator 13.0.0, SVG Export Plug-In . SVG Version: 6.00 Build 14948)  -->
<!DOCTYPE svg PUBLIC "-//W3C//DTD SVG 1.1//EN" "http://www.w3.org/Graphics/SVG/1.1/DTD/svg11.dtd">
<svg version="1.1" id="Layer_1" xmlns="http://www.w3.org/2000/svg" xmlns:xlink="http://www.w3.org/1999/xlink" x="0px" y="0px"
	 width="128px" height="100px" viewBox="0 0 128 100" enable-background="new 0 0 128 100" xml:space="preserve">
<defs>
<filter id="Gaussian_Blur">
<feGaussianBlur in="SourceGraphic" stdDeviation="2" />
</filter>
</defs>
<path opacity="0.5" enable-background="new    " d="M7.333,54.584c0,0,67.667-15.334,114.544,3.387
	c0.996,1.155,0.379,2.506-1.603,3.453c-1.978,0.945-68.924,25.151-68.924,25.151s-3.244,1.307-4.803,1.264
	c-2.569-0.069-4.087-0.8-4.129-6.866c-0.027-3.962,1.748-10.556,1.748-10.556L8.966,70.355c0,0-2.428,0.155-4.381-1.938
	C2.71,66.406,7.333,54.584,7.333,54.584z" style="fill:#000000;stroke:#000000;
stroke-width:0;filter:url(#Gaussian_Blur)"/>
<linearGradient id="SVGID_1_" gradientUnits="userSpaceOnUse" x1="215.7656" y1="-278.127" x2="222.8434" y2="-212.7417" gradientTransform="matrix(1 0 0 -1 -156 -197)">
	<stop  offset="0" style="stop-color:#20ABFF"/>
	<stop  offset="0.5838" style="stop-color:#1572DE"/>
	<stop  offset="0.8528" style="stop-color:#0938BC"/>
</linearGradient>
<path fill="url(#SVGID_1_)" d="M3.269,61.407c0,0-0.076-6.572-0.084-8.765C3.173,49.495,4.28,43.88,6.555,38.74
	c2.274-5.14,2.875-6.55,4.897-6.55s42.036,0.315,42.036,0.315l3.371-15.504c0,0,0.505-3.202,2.444-3.792
	c1.938-0.59,5.392,1.179,5.392,1.179S104.762,34,117.906,40.509c1.074,0.531,4.15,2.085,4.17,3.202
	c0.035,1.855,0.171,11.375,0.171,11.375s0.379,2.507-1.603,3.454c-1.977,0.946-68.924,25.151-68.924,25.151S48.475,85,46.916,84.957
	c-2.57-0.07-4.087-0.8-4.129-6.866c-0.028-3.962,1.095-10.194,1.095-10.194L9.334,67.475c0,0-2.428,0.155-4.381-1.938
	C3.079,63.523,3.269,61.407,3.269,61.407z"/>
<linearGradient id="SVGID_2_" gradientUnits="userSpaceOnUse" x1="186.625" y1="-258.7021" x2="186.625" y2="-248.506" gradientTransform="matrix(1 0 0 -1 -156 -197)">
	<stop  offset="0" style="stop-color:#20D4FF"/>
	<stop  offset="1" style="stop-color:#20ADFF"/>
</linearGradient>
<path fill="url(#SVGID_2_)" d="M49.463,65.747l-40.53,0.085L6.91,64.566c0,0-0.59-3.116-0.505-6.571
	C6.49,54.54,6.489,54.54,6.489,54.54s-0.084-3.201,3.539-3.286s44.826-0.253,44.826-0.253L49.463,65.747z"/>
<path fill="#20BFFF" d="M3.236,58.395c0,0-0.758,5.311,1.833,7.395c1.324,1.064,2.948,1.703,4.192,1.729
	c8.595,0.168,34.621,0.379,34.621,0.379s-1.337,7.162-1.169,9.773c0.147,2.271,2.422,3.803,2.422,3.803s1.078-5.709,1.928-8.216
	c0.8-2.358,2.863-7.687,1.906-8.815C48.148,63.473,9.64,64.714,9.64,64.714s-2.928,0.2-4.382-1.38
	C3.907,61.865,3.236,58.395,3.236,58.395z"/>
<linearGradient id="SVGID_3_" gradientUnits="userSpaceOnUse" x1="237.3691" y1="-274.5654" x2="237.3691" y2="-223.0167" gradientTransform="matrix(1 0 0 -1 -156 -197)">
	<stop  offset="0" style="stop-color:#3AEFFF"/>
	<stop  offset="0.5482" style="stop-color:#20ABFF"/>
	<stop  offset="0.619" style="stop-color:#1EA1F9"/>
	<stop  offset="0.7399" style="stop-color:#1986E9"/>
	<stop  offset="0.8955" style="stop-color:#105AD0"/>
	<stop  offset="1" style="stop-color:#0938BC"/>
</linearGradient>
<path fill="url(#SVGID_3_)" d="M45.493,78.723L58.975,26.65l4.719-0.843l53.251,29.154c0,0,2.022,1.518-0.506,2.528
	c-2.526,1.011-68.083,24.771-68.083,24.771s-2.066,0.751-3.034,0C44.566,81.672,45.493,78.723,45.493,78.723z"/>
<linearGradient id="SVGID_4_" gradientUnits="userSpaceOnUse" x1="199.0293" y1="-265.7773" x2="278.4434" y2="-265.7773" gradientTransform="matrix(1 0 0 -1 -156 -197)">
	<stop  offset="0" style="stop-color:#20ABFF"/>
	<stop  offset="1" style="stop-color:#2057D9"/>
</linearGradient>
<path fill="url(#SVGID_4_)" d="M49.18,82.389c0,0,66.071-24.488,67.683-25.09c1.621-0.604,5.135-1.801,5.197-3.775
	c0.111-3.474,1.265,4.093-1.068,4.979c-1.91,0.725-69.642,25.362-69.642,25.362s-2.232,1.096-4.739,1.073
	c-3.581-0.029-3.581-3.58-3.581-3.58s2.612,1.662,3.623,1.662C47.664,83.02,49.18,82.389,49.18,82.389z"/>
<path opacity="0.6" fill="#FFFFFF" enable-background="new    " d="M5.575,47.314c0,0,2.549-7.436,3.666-10.238
	c1.221-3.063,2.212-2.928,2.212-2.928l44.237,0.084c0,0,1.424-7.97,2.359-11.965c0.927-3.96,1.606-6.962,2.443-7.12
	c1.428-0.27,41.267,18.927,41.541,20.013c0.346,1.374-5.168,9.218-15.883,14.998c-9.606,5.182-9.732,5.141-16.559,7.668
	c-6.825,2.527-11.88,3.623-15.588,3.707c-3.707,0.084-4.855,0.475-5.361-0.254c-0.671-0.965,2.075-4.213,2.075-5.981
	c0-1.69-0.485-3.55-3.497-5.708c-3.496-2.507-13.253-2.492-17.757-2.401C23.745,47.302,5.575,47.314,5.575,47.314z"/>
<linearGradient id="SVGID_5_" gradientUnits="userSpaceOnUse" x1="183.9668" y1="-253.4766" x2="183.9668" y2="-250.6126" gradientTransform="matrix(1 0 0 -1 -156 -197)">
	<stop  offset="0" style="stop-color:#A3E0FF"/>
	<stop  offset="1" style="stop-color:#FFFFFF"/>
</linearGradient>
<path opacity="0.7" fill="url(#SVGID_5_)" enable-background="new    " d="M50.128,54.961c0,1.023-0.83,1.854-1.854,1.854H7.66
	c-1.023,0-1.854-0.828-1.854-1.854l0,0c0-1.023,0.83-1.854,1.854-1.854h40.614C49.298,53.107,50.128,53.938,50.128,54.961
	L50.128,54.961z"/>
<linearGradient id="SVGID_6_" gradientUnits="userSpaceOnUse" x1="116.0586" y1="-316.2344" x2="116.0586" y2="-313.3705" gradientTransform="matrix(0.9448 -0.3275 -0.3275 -0.9448 -130.0903 -201.9744)">
	<stop  offset="0" style="stop-color:#A3E0FF"/>
	<stop  offset="1" style="stop-color:#FFFFFF"/>
</linearGradient>
<path opacity="0.7" fill="url(#SVGID_6_)" enable-background="new    " d="M119.632,44.537c0.335,0.968-0.776,2.23-2.487,2.824
	L49.334,70.866c-1.709,0.593-3.367,0.29-3.703-0.679l0,0c-0.334-0.967,0.78-2.23,2.488-2.823l67.813-23.506
	C117.641,43.265,119.296,43.569,119.632,44.537L119.632,44.537z"/>
</svg>
